:FULLY-SPECIFIED
:FORCE-ALL-JOINTS-BE-3DOF
:DEGREES
917
root 2.42102 15.9304 32.0532 1.8093 11.1724 3.08911
lfemur -5.90592 13.8138 -5.39062
ltibia 22.2764 -0 0
lfoot -23.7433 -8.71961 0.522085
ltoes -16.9316 0 0
rfemur -40.5528 -20.1119 1.57278
rtibia 75.9457 -0 0
rfoot -0.282638 5.27134 1.16227
rtoes -26.8235 0 0
lowerback 2.14015 -2.93929 -3.03965
upperback 0.341358 -3.8783 -4.78842
thorax -0.68458 -2.01893 -2.99579
lowerneck -7.25153 -1.81642 1.82804
upperneck 3.48103 -2.84235 4.51092
head 2.44585 -1.24937 0.977532
lclavicle -2.87581e-14 -4.18976e-14 1.04726e-29
lhumerus -51.6447 -44.2417 106.264
lradius 58.4183 -0 0
lwrist 20.2504 0 0
lhand 35.5573 18.6915 0.388353
lfingers 7.12502 -0 0
lthumb 58.4418 32.6392 0.0269159
rclavicle -2.87581e-14 -4.18976e-14 1.04726e-29
rhumerus -27.0391 1.89574 -35.2213
rradius 64.7512 -0 0
rwrist -19.8493 0 0
rhand -27.4205 -46.6178 1.18763
rfingers 7.12502 -0 0
rthumb -0.54695 -66.7941 -0.606623
918
root 2.36315 15.9025 32.0959 2.10337 10.3728 3.24652
lfemur -5.28372 13.0785 -4.91576
ltibia 21.3493 -0 0
lfoot -24.1479 -9.09914 0.513871
ltoes -17.6829 0 0
rfemur -39.8755 -19.5541 0.872939
rtibia 74.289 -0 0
rfoot -1.12724 4.86623 1.14462
rtoes -27.8398 0 0
lowerback 1.81039 -2.83646 -2.88419
upperback 0.234537 -3.72926 -4.93673
thorax -0.630704 -1.94475 -3.2575
lowerneck -7.23168 -1.67685 1.89706
upperneck 3.40289 -2.65571 4.47004
head 2.41062 -1.15894 0.961079
lclavicle -2.69847e-14 -4.3619e-14 1.02989e-29
lhumerus -52.0784 -44.2013 106.552
lradius 58.2568 -0 0
lwrist 20.5684 0 0
lhand 35.9228 19.0035 0.382247
lfingers 7.12502 -0 0
lthumb 58.7591 32.6605 0.027217
rclavicle -2.69847e-14 -4.3619e-14 1.02989e-29
rhumerus -25.848 2.58971 -33.7727
rradius 63.5101 -0 0
rwrist -19.7508 0 0
rhand -26.7247 -46.0989 1.16689
rfingers 7.12502 -0 0
rthumb 0.106986 -66.8132 -0.582939
919
root 2.30566 15.8747 32.1382 2.39152 9.57732 3.39781
lfemur -4.67244 12.343 -4.45286
ltibia 20.4277 -0 0
lfoot -24.5499 -9.47442 0.503038
ltoes -18.4301 0 0
rfemur -39.2148 -18.9944 0.189713
rtibia 72.6438 -0 0
rfoot -1.9673 4.46716 1.12126
rtoes -28.8481 0 0
lowerback 1.48411 -2.73314 -2.73041
upperback 0.128577 -3.58114 -5.08391
thorax -0.577496 -1.87064 -3.51691
lowerneck -7.21201 -1.53812 1.96661
upperneck 3.32518 -2.47032 4.4292
head 2.37564 -1.06907 0.94453
lclavicle -2.52173e-14 -4.53034e-14 1.0065e-29
lhumerus -52.5071 -44.1604 106.836
lradius 58.0962 -0 0
lwrist 20.8846 0 0
lhand 36.2845 19.3136 0.374173
lfingers 7.12502 -0 0
lthumb 59.0733 32.6832 0.0274094
rclavicle -2.52173e-14 -4.53034e-14 1.0065e-29
rhumerus -24.6435 3.24001 -32.3136
rradius 62.2718 -0 0
rwrist -19.6509 0 0
rhand -26.0388 -45.5859 1.14015
rfingers 7.12502 -0 0
rthumb 0.751143 -66.8572 -0.554141
920
root 2.24866 15.8471 32.1801 2.67339 8.7878 3.54282
lfemur -4.07291 11.6091 -4.00243
ltibia 19.5137 -0 0
lfoot -24.9485 -9.84461 0.489675
ltoes -19.1719 0 0
rfemur -38.5713 -18.4343 -0.476054
rtibia 71.0135 -0 0
rfoot -2.80126 4.07496 1.09236
rtoes -29.8462 0 0
lowerback 1.16193 -2.62957 -2.57862
upperback 0.0236922 -3.4342 -5.22963
thorax -0.525038 -1.79675 -3.77344
lowerneck -7.19259 -1.40053 2.0366
upperneck 3.24808 -2.28657 4.38849
head 2.341 -0.97998 0.927912
lclavicle -2.34602e-14 -4.69446e-14 9.77351e-30
lhumerus -52.9302 -44.1192 107.117
lradius 57.9368 -0 0
lwrist 21.1983 0 0
lhand 36.6418 19.6212 0.364199
lfingers 7.12502 -0 0
lthumb 59.3836 32.7073 0.0274847
rclavicle -2.34602e-14 -4.69446e-14 9.77351e-30
rhumerus -23.4289 3.84463 -30.8479
rradius 61.0389 -0 0
rwrist -19.5495 0 0
rhand -25.3645 -45.0798 1.10766
rfingers 7.12502 -0 0
rthumb 1.38406 -66.9228 -0.520572
921
root 2.19227 15.8198 32.2214 2.94864 8.00593 3.68142
lfemur -3.48592 10.8788 -3.56488
ltibia 18.6091 -0 0
lfoot -25.3428 -10.2089 0.473892
ltoes -19.9067 0 0
rfemur -37.9456 -17.8756 -1.12358
rtibia 69.4016 -0 0
rfoot -3.62755 3.69049 1.05815
rtoes -30.832 0 0
lowerback 0.844455 -2.52598 -2.42912
upperback -0.0798992 -3.28873 -5.37355
thorax -0.473412 -1.72322 -4.02653
lowerneck -7.17346 -1.26439 2.10694
upperneck 3.17174 -2.1049 4.34802
head 2.30677 -0.891855 0.911253
lclavicle -2.17182e-14 -4.85369e-14 9.4275e-30
lhumerus -53.3467 -44.0779 107.395
lradius 57.7792 -0 0
lwrist 21.5088 0 0
lhand 36.9936 19.9256 0.352407
lfingers 7.12502 -0 0
lthumb 59.6893 32.7328 0.0274345
rclavicle -2.17182e-14 -4.85369e-14 9.4275e-30
rhumerus -22.2076 4.40182 -29.3792
rradius 59.8136 -0 0
rwrist -19.4466 0 0
rhand -24.7033 -44.5816 1.06972
rfingers 7.12502 -0 0
rthumb 2.00428 -67.0066 -0.482664
922
root 2.13659 15.7927 32.262 3.21697 7.2334 3.81352
lfemur -2.91223 10.1538 -3.14056
ltibia 17.7156 -0 0
lfoot -25.7322 -10.5664 0.455822
ltoes -20.633 0 0
rfemur -37.3382 -17.32 -1.75214
rtibia 67.8116 -0 0
rfoot -4.44462 3.3146 1.01893
rtoes -31.8034 0 0
lowerback 0.532313 -2.4226 -2.28223
upperback -0.181975 -3.14499 -5.51531
thorax -0.422693 -1.6502 -4.27562
lowerneck -7.15469 -1.13001 2.17753
upperneck 3.09634 -1.92569 4.30788
head 2.27302 -0.804898 0.894583
lclavicle -1.99958e-14 -5.00742e-14 9.03061e-30
lhumerus -53.7561 -44.0368 107.669
lradius 57.6235 -0 0
lwrist 21.8153 0 0
lhand 37.3393 20.2263 0.338895
lfingers 7.12502 -0 0
lthumb 59.9899 32.7599 0.0272508
rclavicle -1.99958e-14 -5.00742e-14 9.03061e-30
rhumerus -20.9834 4.91018 -27.9117
rradius 58.5986 -0 0
rwrist -19.3423 0 0
rhand -24.0569 -44.0923 1.02666
rfingers 7.12502 -0 0
rthumb 2.61034 -67.1051 -0.440941
923
root 2.08174 15.766 32.302 3.47804 6.47194 3.93903
lfemur -2.35255 9.43617 -2.72979
ltibia 16.8353 -0 0
lfoot -26.1157 -10.9162 0.435612
ltoes -21.3496 0 0
rfemur -36.7496 -16.769 -2.36106
rtibia 66.247 -0 0
rfoot -5.25091 2.94812 0.974985
rtoes -32.7583 0 0
lowerback 0.22611 -2.31968 -2.13823
upperback -0.28231 -3.00326 -5.65458
thorax -0.372952 -1.57785 -4.52016
lowerneck -7.13632 -0.997671 2.24827
upperneck 3.02203 -1.74937 4.26818
head 2.23983 -0.719306 0.87793
lclavicle -1.82975e-14 -5.15505e-14 8.58704e-30
lhumerus -54.1577 -43.9961 107.939
lradius 57.4701 -0 0
lwrist 22.1172 0 0
lhand 37.678 20.5227 0.323778
lfingers 7.12502 -0 0
lthumb 60.2844 32.7885 0.026926
rclavicle -1.82975e-14 -5.15505e-14 8.58704e-30
rhumerus -19.76 5.36857 -26.4496
rradius 57.3961 -0 0
rwrist -19.2364 0 0
rhand -23.427 -43.6129 0.978874
rfingers 7.12502 -0 0
rthumb 3.20078 -67.215 -0.396011
924
root 2.02784 15.7396 32.3412 3.73156 5.72326 4.05788
lfemur -1.80756 8.72777 -2.33282
ltibia 15.9698 -0 0
lfoot -26.4928 -11.2576 0.413432
ltoes -22.0549 0 0
rfemur -36.1803 -16.2245 -2.94971
rtibia 64.7113 -0 0
rfoot -6.04488 2.59188 0.926685
rtoes -33.6945 0 0
lowerback -0.0735458 -2.21747 -1.99742
upperback -0.380698 -2.86377 -5.79103
thorax -0.324271 -1.50633 -4.75953
lowerneck -7.11843 -0.86769 2.31908
upperneck 2.94898 -1.57634 4.22903
head 2.20728 -0.635278 0.861324
lclavicle -1.66278e-14 -5.296e-14 8.10153e-30
lhumerus -54.5506 -43.9561 108.204
lradius 57.3195 -0 0
lwrist 22.4137 0 0
lhand 38.0088 20.8141 0.307182
lfingers 7.12502 -0 0
lthumb 60.5722 32.8189 0.0264529
rclavicle -1.66278e-14 -5.296e-14 8.10153e-30
rhumerus -18.5415 5.77619 -24.9971
rradius 56.2088 -0 0
rwrist -19.129 0 0
rhand -22.815 -43.1444 0.926789
rfingers 7.12502 -0 0
rthumb 3.77417 -67.333 -0.348571
925
root 1.97499 15.7136 32.3795 3.97721 4.98907 4.17003
lfemur -1.27791 8.03055 -1.94987
ltibia 15.1212 -0 0
lfoot -26.8626 -11.5897 0.389468
ltoes -22.7474 0 0
rfemur -35.6307 -15.6882 -3.51749
rtibia 63.208 -0 0
rfoot -6.825 2.24668 0.874413
rtoes -34.61 0 0
lowerback -0.366047 -2.11621 -1.86009
upperback -0.476866 -2.72685 -5.92426
thorax -0.276715 -1.43579 -4.9932
lowerneck -7.10106 -0.740365 2.38986
upperneck 2.87736 -1.40701 4.19052
head 2.17544 -0.553012 0.844795
lclavicle -1.49913e-14 -5.42966e-14 7.57928e-30
lhumerus -54.9341 -43.917 108.465
lradius 57.1719 -0 0
lwrist 22.7041 0 0
lhand 38.331 21.1 0.289248
lfingers 7.12502 -0 0
lthumb 60.8527 32.851 0.0258248
rclavicle -1.49913e-14 -5.42966e-14 7.57928e-30
rhumerus -17.3318 6.13256 -23.5589
rradius 55.0389 -0 0
rwrist -19.0201 0 0
rhand -22.2226 -42.6879 0.870865
rfingers 7.12502 -0 0
rthumb 4.32905 -67.4556 -0.299393
926
root 1.9233 15.6882 32.4169 4.21468 4.27109 4.27544
lfemur -0.764238 7.34647 -1.5811
ltibia 14.2911 -0 0
lfoot -27.2244 -11.9117 0.36392
ltoes -23.4258 0 0
rfemur -35.1011 -15.1619 -4.06386
rtibia 61.7406 -0 0
rfoot -7.58971 1.91333 0.818587
rtoes -35.5027 0 0
lowerback -0.650789 -2.01618 -1.72653
upperback -0.570603 -2.59272 -6.05393
thorax -0.230352 -1.36638 -5.22061
lowerneck -7.08428 -0.615999 2.46051
upperneck 2.80734 -1.24178 4.15278
head 2.1444 -0.472706 0.828374
lclavicle -1.33925e-14 -5.55544e-14 7.02593e-30
lhumerus -55.3077 -43.8791 108.721
lradius 57.0278 -0 0
lwrist 22.9877 0 0
lhand 38.6437 21.3796 0.270131
lfingers 7.12502 -0 0
lthumb 61.1251 32.8849 0.025036
rclavicle -1.33925e-14 -5.55544e-14 7.02593e-30
rhumerus -16.1352 6.43751 -22.1394
rradius 53.889 -0 0
rwrist -18.9097 0 0
rhand -21.6514 -42.2443 0.811601
rfingers 7.12502 -0 0
rthumb 4.86399 -67.5797 -0.24933
927
root 1.87289 15.6632 32.4532 4.44369 3.57104 4.37409
lfemur -0.267152 6.67749 -1.22665
ltibia 13.4816 -0 0
lfoot -27.5774 -12.2227 0.337005
ltoes -24.0885 0 0
rfemur -34.5918 -14.6472 -4.58829
rtibia 60.3126 -0 0
rfoot -8.33752 1.59261 0.759656
rtoes -36.3705 0 0
lowerback -0.927169 -1.91764 -1.597
upperback -0.661672 -2.46166 -6.1797
thorax -0.185246 -1.29827 -5.44118
lowerneck -7.06815 -0.494893 2.53093
upperneck 2.73908 -1.08106 4.1159
head 2.11421 -0.394558 0.812091
lclavicle -1.18361e-14 -5.67274e-14 6.44749e-30
lhumerus -55.6705 -43.8427 108.971
lradius 56.8874 -0 0
lwrist 23.2639 0 0
lhand 38.9461 21.6525 0.249995
lfingers 7.12502 -0 0
lthumb 61.3886 32.9206 0.0240817
rclavicle -1.18361e-14 -5.67274e-14 6.44749e-30
rhumerus -14.9559 6.69118 -20.7432
rradius 52.7616 -0 0
rwrist -18.7977 0 0
rhand -21.1031 -41.8145 0.749525
rfingers 7.12502 -0 0
rthumb 5.37759 -67.7019 -0.199303
